10lbsSpring1
version=1
nRows=22
nColumns=28
inDegrees=yes
endheader
time	ground_force1_vx	ground_force1_vy	ground_force1_vz	ground_force1_px	ground_force1_py	ground_force1_pz	ground_torque1_x	ground_torque1_y	ground_torque1_z	ground_force2_vx	ground_force2_vy	ground_force2_vz	ground_force2_px	ground_force2_py	ground_force2_pz	ground_torque2_x	ground_torque2_y	ground_torque2_z	ground_force3_vx	ground_force3_vy	ground_force3_vz	ground_force3_px	ground_force3_py	ground_force3_pz	ground_torque3_x	ground_torque3_y	ground_torque3_z
5.205000	0.004348	-0.018797	-0.023639	-0.203000	0.000000	0.001500	-0.000902	0.005785	-0.003885	1.255422	71.478981	-1.326018	-0.183641	0.000000	-0.593823	0.000001	-1.112908	-0.000000	-0.015988	-2.475856	-0.264138	0.200000	0.000000	-0.300000	0.032193	0.069198	0.140028	
5.206000	0.083356	-0.674478	0.083132	-0.203000	0.000000	0.001500	0.004083	0.051529	-0.071048	1.171466	73.336601	-0.724606	-0.184268	0.000000	-0.594814	0.000005	-1.058326	-0.000001	-0.258891	-3.192432	-0.612442	0.200000	0.000000	-0.300000	0.055536	0.037048	0.083216	
5.207000	-0.166129	-1.388622	0.089893	-0.203000	0.000000	0.001500	0.004484	0.071247	0.067599	1.164046	74.808647	-1.033911	-0.184216	0.000000	-0.591319	0.000007	-1.129824	-0.000000	-0.268920	-2.553641	-0.206171	0.200000	0.000000	-0.300000	0.075074	-0.016769	0.179656	
5.208000	0.073812	-1.087675	0.172174	-0.203000	0.000000	0.001500	0.049641	0.089782	0.099010	1.589979	73.871231	-0.972789	-0.183701	0.000000	-0.593700	0.000001	-1.066352	-0.000001	-0.014881	-0.139263	-0.010043	0.200000	0.000000	-0.300000	0.004217	-0.001096	0.010274	
5.209000	0.079201	-2.080800	-0.331332	-0.203000	0.000000	0.001500	0.033153	0.142016	-0.066558	1.442839	74.831444	-1.053165	-0.184937	0.000000	-0.591257	0.000000	-1.024866	-0.000001	-0.170617	-0.677539	-0.169132	0.200000	0.000000	-0.300000	0.114950	0.138626	0.172598	
5.210000	0.007490	-0.452133	0.318423	-0.203000	0.000000	0.001500	-0.109671	0.111528	-0.105016	1.686038	74.554749	-1.147208	-0.184783	0.000000	-0.593864	0.000001	-1.057470	-0.000002	-0.182825	-2.074304	-0.436183	0.200000	0.000000	-0.300000	-0.176690	0.093924	0.016308	
5.211000	0.499470	-0.690651	-0.240159	-0.203000	0.000000	0.001500	-0.056514	0.126694	-0.126390	1.189784	73.516685	-1.316960	-0.183871	0.000000	-0.595147	0.000004	-1.061031	-0.000001	-0.094919	-2.494810	-0.198323	0.200000	0.000000	-0.300000	-0.225275	0.003772	0.035845	
5.212000	0.441857	-1.047386	-0.358190	-0.203000	0.000000	0.001500	-0.014529	0.144741	-0.057842	1.502605	74.132164	-1.073770	-0.183820	0.000000	-0.595128	0.000001	-1.063123	-0.000001	-0.512711	-1.495137	-0.176766	0.200000	0.000000	-0.300000	0.019149	-0.000830	-0.044075	
5.213000	-0.064837	-1.406668	-0.104521	-0.203000	0.000000	0.001500	0.163643	0.024252	-0.134169	1.523976	75.864845	-0.803074	-0.185597	0.000000	-0.592429	0.000004	-0.961179	-0.000001	-0.289386	-1.095828	-0.517912	0.200000	0.000000	-0.300000	0.102534	-0.000608	0.372114	
5.214000	0.495881	-0.748856	-0.095298	-0.203000	0.000000	0.001500	0.007673	0.052380	-0.228234	1.696613	74.950768	-0.617127	-0.184466	0.000000	-0.596447	0.000001	-1.066721	-0.000001	-0.015531	-1.416918	-0.117758	0.200000	0.000000	-0.300000	-0.039909	-0.052851	0.187603	
5.215000	0.193550	-1.722005	0.075944	-0.203000	0.000000	0.001500	0.129890	0.088271	-0.021883	1.538586	75.565285	-0.775084	-0.182454	0.000000	-0.593566	0.000002	-1.011998	-0.000000	-0.005215	-0.419825	-0.429817	0.200000	0.000000	-0.300000	-0.102094	0.013975	-0.023094	
5.216000	0.009600	-0.098271	0.004741	-0.203000	0.000000	0.001500	0.007591	0.004980	-0.000529	1.781044	73.239166	-0.958847	-0.182402	0.000000	-0.590358	0.000002	-1.068287	-0.000000	0.250057	-2.054315	-0.371268	0.200000	0.000000	-0.300000	-0.185422	0.034606	0.119299	
5.217000	0.500522	-0.333715	-0.174432	-0.203000	0.000000	0.001500	-0.005462	0.068950	-0.086949	1.368168	74.450043	-1.307450	-0.181683	0.000000	-0.595577	0.000002	-1.040219	-0.000001	-0.322605	-2.154228	-0.190374	0.200000	0.000000	-0.300000	0.102034	0.052944	0.152732	
5.218000	0.704049	-0.352120	-0.013761	-0.203000	0.000000	0.001500	0.045339	0.141749	-0.063930	1.682064	74.534935	-1.161530	-0.184146	0.000000	-0.590813	0.000002	-1.069501	-0.000001	-0.099694	-2.495115	0.240516	0.200000	0.000000	-0.300000	-0.108262	0.019136	0.143399	
5.219000	-0.051549	-1.702745	-0.253781	-0.203000	0.000000	0.001500	0.160442	0.127928	-0.201095	1.535696	73.179863	-0.891415	-0.184023	0.000000	-0.592408	0.000002	-1.116022	0.000000	-0.179134	-2.513691	-0.579833	0.200000	0.000000	-0.300000	-0.074928	0.086334	0.113607	
5.220000	0.159545	-1.108248	-0.017734	-0.203000	0.000000	0.001500	-0.114121	0.127380	0.113074	1.352059	73.097656	-1.301172	-0.182728	0.000000	-0.593327	-0.000001	-0.973488	-0.000001	-0.183366	-1.836864	-0.461270	0.200000	0.000000	-0.300000	-0.064351	0.038986	0.145174	
5.221000	-0.081609	-1.742487	-0.253616	-0.203000	0.000000	0.001500	0.067168	0.005923	0.075604	1.340054	74.117340	-1.244376	-0.184744	0.000000	-0.596235	0.000002	-1.058547	-0.000001	0.410062	-2.137364	-0.203958	0.200000	0.000000	-0.300000	0.028175	0.018286	0.122734	
5.222000	0.160866	0.233190	-0.355605	-0.203000	0.000000	0.001500	-0.217828	0.068982	-0.035325	1.085450	75.519318	-1.492052	-0.183144	0.000000	-0.594473	0.000004	-1.071954	-0.000001	0.025105	-1.479497	-0.182749	0.200000	0.000000	-0.300000	-0.047310	0.086861	0.105741	
5.223000	0.087990	-0.988062	-0.275049	-0.203000	0.000000	0.001500	0.226986	0.124331	0.059818	1.072296	73.916374	-1.419377	-0.181657	0.000000	-0.594686	0.000000	-1.056355	-0.000001	0.417476	-2.453846	-0.442768	0.200000	0.000000	-0.300000	-0.185854	0.004046	0.186400	
5.224000	-0.000710	-2.077431	-0.017120	-0.203000	0.000000	0.001500	-0.066692	0.092109	0.133970	1.408005	75.839401	-1.506710	-0.184190	0.000000	-0.590598	-0.000000	-1.065704	-0.000000	0.273040	-2.516070	-0.626350	0.200000	0.000000	-0.300000	0.084307	0.067855	0.066205	
5.225000	0.160986	-2.809469	0.080031	-0.203000	0.000000	0.001500	0.167180	0.141271	0.097144	1.343092	74.953468	-1.596407	-0.184123	0.000000	-0.592436	0.000006	-1.154818	-0.000001	0.012279	-1.500736	-0.378462	0.200000	0.000000	-0.300000	-0.131618	0.038145	0.102133	
5.226000	0.341925	-0.833681	-0.083463	-0.203000	0.000000	0.001500	0.132903	0.076845	-0.141464	1.516270	74.214081	-0.917954	-0.182045	0.000000	-0.594326	0.000003	-1.017512	-0.000001	0.083168	-1.775762	-0.194619	0.200000	0.000000	-0.300000	-0.099038	0.087723	0.002001	
